<svg xmlns="http://www.w3.org/2000/svg" aria-hidden="true">
  <!-- Atelier UI sprite (fase 8.4)  referęncia: <use href="/icons.svg#atelier-&" /> -->
  <symbol id="atelier-chevron-right" viewBox="0 0 16 16">
    <path
      d="M10 3.5 5.5 8 10 12.5"
      fill="none"
      stroke="currentColor"
      stroke-width="1.25"
      stroke-linecap="round"
      stroke-linejoin="round"
    />
  </symbol>
  <symbol id="atelier-chevron-up" viewBox="0 0 16 16">
    <path
      d="M8 11.5V4.5 M4.5 8 8 4.5 11.5 8"
      fill="none"
      stroke="currentColor"
      stroke-width="1.25"
      stroke-linecap="round"
      stroke-linejoin="round"
    />
  </symbol>
  <symbol id="atelier-nav-sidebar" viewBox="0 0 16 16">
    <rect x="1.5" y="2" width="4" height="12" fill="none" stroke="currentColor" stroke-width="1.25" />
    <rect x="6.5" y="2" width="8" height="12" fill="none" stroke="currentColor" stroke-width="1.25" />
  </symbol>
  <symbol id="atelier-nav-navbar" viewBox="0 0 16 16">
    <rect x="1.5" y="2" width="13" height="3" fill="none" stroke="currentColor" stroke-width="1.25" />
    <rect x="1.5" y="6" width="13" height="8" fill="none" stroke="currentColor" stroke-width="1.25" />
  </symbol>
  <symbol id="atelier-theme-dark" viewBox="0 0 16 16">
    <path
      d="M12.5 9.5A5 5 0 1 1 6.5 3.5a4 4 0 0 0 6 6z"
      fill="none"
      stroke="currentColor"
      stroke-width="1.25"
      stroke-linejoin="round"
    />
  </symbol>
  <symbol id="atelier-theme-light" viewBox="0 0 16 16">
    <circle cx="8" cy="8" r="3" fill="none" stroke="currentColor" stroke-width="1.25" />
    <path
      d="M8 1.5V3 M8 13v1.5 M1.5 8H3 M13 8h1.5 M3.2 3.2l1.1 1.1 M11.7 11.7l1.1 1.1 M3.2 12.8l1.1-1.1 M11.7 4.3l1.1-1.1"
      stroke="currentColor"
      stroke-width="1.25"
      stroke-linecap="round"
    />
  </symbol>
  <symbol id="atelier-github" viewBox="0 0 16 16">
    <path
      fill="currentColor"
      d="M8 0C3.58 0 0 3.58 0 8c0 3.54 2.29 6.53 5.47 7.59.4.07.55-.17.55-.38 0-.19-.01-.82-.01-1.49-2.01.37-2.53-.49-2.69-.94-.09-.23-.48-.94-.82-1.13-.28-.15-.68-.52-.01-.53.63-.01 1.08.58 1.23.82.72 1.21 1.87.87 2.33.66.07-.52.28-.87.51-1.07-1.78-.2-3.64-.89-3.64-3.95 0-.87.31-1.59.82-2.15-.08-.2-.36-1.02.08-2.12 0 0 .67-.21 2.2.82.64-.18 1.32-.27 2-.27s1.36.09 2 .27c1.53-1.04 2.2-.82 2.2-.82.44 1.1.16 1.92.08 2.12.51.56.82 1.27.82 2.15 0 3.07-1.87 3.75-3.65 3.95.29.25.54.73.54 1.48 0 1.07-.01 1.93-.01 2.2 0 .21.15.46.55.38A8.01 8.01 0 0 0 16 8c0-4.42-3.58-8-8-8z"
    />
  </symbol>
  <symbol id="atelier-linkedin" viewBox="0 0 16 16">
    <path
      fill="currentColor"
      d="M13.63 13.63h-2.37V9.92c0-.88-.02-2.02-1.23-2.02-1.23 0-1.42.96-1.42 1.96v3.77H6.24V6h2.27v1.04h.03c.32-.6 1.09-1.23 2.25-1.23 2.4 0 2.85 1.58 2.85 3.64v4.18zM3.56 4.96a1.37 1.37 0 1 1 0-2.75 1.37 1.37 0 0 1 0 2.75zm1.19 8.67H2.37V6h2.38v7.63zM14.82 0H1.18C.53 0 0 .52 0 1.16v13.68C0 15.48.53 16 1.18 16h13.64c.65 0 1.18-.52 1.18-1.16V1.16C16 .52 15.47 0 14.82 0z"
    />
  </symbol>
</svg>
